<?xml version="1.0" encoding="utf-8"?>
<svg xmlns="http://www.w3.org/2000/svg" xmlns:xlink="http://www.w3.org/1999/xlink" preserveAspectRatio="xMidYMid" width="9" height="12" viewBox="0 0 9 12">
  <defs>
    <style>

      .cls-2 {
        fill: #74CF99;
      }
    </style>
  </defs>
  <path d="M1.983,0.011 C1.914,0.011 1.858,0.039 1.803,0.080 C1.803,0.080 0.053,1.830 0.053,1.830 C-0.044,1.927 -0.044,2.094 0.053,2.191 C0.053,2.191 3.872,6.009 3.872,6.009 C3.872,6.009 0.053,9.828 0.053,9.828 C-0.044,9.925 -0.044,10.092 0.053,10.189 C0.053,10.189 1.803,11.938 1.803,11.938 C1.900,12.036 2.067,12.036 2.164,11.938 C2.164,11.938 7.913,6.190 7.913,6.190 C8.010,6.093 8.010,5.926 7.913,5.829 C7.913,5.829 2.164,0.080 2.164,0.080 C2.108,0.039 2.053,0.011 1.983,0.011 Z" id="path-1" class="cls-2" fill-rule="evenodd"/>
</svg>
